<?xml version="1.0" encoding="UTF-8" standalone="no"?>
<svg width="23px" height="19px" viewBox="0 0 23 19" version="1.1" xmlns="http://www.w3.org/2000/svg" xmlns:xlink="http://www.w3.org/1999/xlink">
    <!-- Generator: Sketch 40.3 (33839) - http://www.bohemiancoding.com/sketch -->
    <title>Twitter</title>
    <desc>Created with Sketch.</desc>
    <defs></defs>
    <g id="Page-1" stroke="none" stroke-width="1" fill="none" fill-rule="evenodd">
        <g id="Homepage" transform="translate(-1090.000000, -3756.000000)" fill="#A5C4EA">
            <g id="Footer" transform="translate(0.000000, 3511.000000)">
                <path d="M1112.76456,247.19014 C1111.92701,247.561962 1111.02687,247.812372 1110.08214,247.925246 C1111.04679,247.347595 1111.78758,246.43227 1112.13569,245.341468 C1111.23364,245.876436 1110.2339,246.26533 1109.16966,246.474954 C1108.31883,245.567217 1107.10377,245 1105.76066,245 C1102.74531,245 1100.52956,247.81332 1101.2106,250.733824 C1097.33019,250.539377 1093.88895,248.680271 1091.58498,245.85462 C1090.36139,247.953702 1090.95042,250.699677 1093.02958,252.090212 C1092.26507,252.065551 1091.5442,251.855927 1090.91533,251.505922 C1090.8641,253.669504 1092.41494,255.693653 1094.66104,256.144201 C1094.00372,256.322524 1093.28379,256.364259 1092.55153,256.223877 C1093.1453,258.079189 1094.86972,259.428938 1096.91474,259.466879 C1094.95129,261.006332 1092.47754,261.694011 1090,261.401866 C1092.06683,262.726953 1094.52256,263.5 1097.15945,263.5 C1105.83086,263.5 1110.72998,256.176451 1110.43404,249.607927 C1111.34652,248.948703 1112.13854,248.126333 1112.76456,247.19014 L1112.76456,247.19014 Z" id="Twitter"></path>
            </g>
        </g>
    </g>
</svg>